%TF.GenerationSoftware,KiCad,Pcbnew,9.0.7*%
%TF.CreationDate,2026-02-28T18:07:03-04:00*%
%TF.ProjectId,KAKATA_RC433_V1,4b414b41-5441-45f5-9243-3433335f5631,V1*%
%TF.SameCoordinates,Original*%
%TF.FileFunction,Copper,L4,Bot*%
%TF.FilePolarity,Positive*%
%FSLAX46Y46*%
G04 Gerber Fmt 4.6, Leading zero omitted, Abs format (unit mm)*
G04 Created by KiCad (PCBNEW 9.0.7) date 2026-02-28 18:07:03*
%MOMM*%
%LPD*%
G01*
G04 APERTURE LIST*
%TA.AperFunction,ComponentPad*%
%ADD10C,4.200000*%
%TD*%
%TA.AperFunction,ComponentPad*%
%ADD11C,2.400000*%
%TD*%
%TA.AperFunction,ComponentPad*%
%ADD12R,1.600000X1.600000*%
%TD*%
%TA.AperFunction,ComponentPad*%
%ADD13C,1.600000*%
%TD*%
%TA.AperFunction,ComponentPad*%
%ADD14C,2.000000*%
%TD*%
%TA.AperFunction,ComponentPad*%
%ADD15C,0.900000*%
%TD*%
%TA.AperFunction,ComponentPad*%
%ADD16C,1.700000*%
%TD*%
%TA.AperFunction,ComponentPad*%
%ADD17C,1.500000*%
%TD*%
%TA.AperFunction,ComponentPad*%
%ADD18R,1.500000X1.500000*%
%TD*%
%TA.AperFunction,ComponentPad*%
%ADD19C,0.700000*%
%TD*%
%TA.AperFunction,ComponentPad*%
%ADD20O,1.100000X2.000000*%
%TD*%
%TA.AperFunction,ComponentPad*%
%ADD21O,1.200000X1.800000*%
%TD*%
%TA.AperFunction,ComponentPad*%
%ADD22C,2.030000*%
%TD*%
%TA.AperFunction,ComponentPad*%
%ADD23C,1.800000*%
%TD*%
%TA.AperFunction,ComponentPad*%
%ADD24C,3.180000*%
%TD*%
%TA.AperFunction,ViaPad*%
%ADD25C,0.600000*%
%TD*%
%TA.AperFunction,Conductor*%
%ADD26C,0.203200*%
%TD*%
%TA.AperFunction,Conductor*%
%ADD27C,0.152400*%
%TD*%
%TA.AperFunction,Conductor*%
%ADD28C,1.219200*%
%TD*%
%TA.AperFunction,Conductor*%
%ADD29C,0.254000*%
%TD*%
G04 APERTURE END LIST*
D10*
%TO.P,BTN3,*%
%TO.N,*%
X170460000Y-176995000D03*
D11*
%TO.P,BTN3,1,1*%
%TO.N,/BTN_3*%
X166660000Y-174455000D03*
%TO.P,BTN3,2,2*%
%TO.N,GND*%
X173000000Y-171915000D03*
%TD*%
D12*
%TO.P,JOY0,1*%
%TO.N,GND*%
X142560000Y-165700000D03*
D13*
%TO.P,JOY0,2*%
%TO.N,/ADC_JOY0_MD*%
X145100000Y-165700000D03*
%TO.P,JOY0,3*%
%TO.N,+3.3V*%
X147640000Y-165700000D03*
D12*
%TO.P,JOY0,4*%
%TO.N,GND*%
X154750000Y-158550000D03*
D13*
%TO.P,JOY0,5*%
%TO.N,/ADC_JOY0_MT*%
X154750000Y-156050000D03*
%TO.P,JOY0,6*%
%TO.N,+3.3V*%
X154750000Y-153550000D03*
%TO.P,JOY0,7*%
%TO.N,/JOY0_BTN*%
X132350000Y-152800000D03*
X132350000Y-159300000D03*
%TO.P,JOY0,8*%
%TO.N,GND*%
X136850000Y-152800000D03*
X136850000Y-159300000D03*
D14*
%TO.P,JOY0,9,shell*%
%TO.N,unconnected-(JOY0-shell-Pad9)*%
X138450000Y-148300000D03*
%TO.P,JOY0,10,shell*%
%TO.N,unconnected-(JOY0-shell-Pad10)*%
X151750000Y-148300000D03*
%TO.P,JOY0,11,shell*%
%TO.N,unconnected-(JOY0-shell-Pad11)*%
X151750000Y-163800000D03*
%TO.P,JOY0,12,shell*%
%TO.N,unconnected-(JOY0-shell-Pad12)*%
X138450000Y-163800000D03*
%TD*%
D15*
%TO.P,SW3,*%
%TO.N,*%
X278760051Y-119989949D03*
X280739949Y-118010051D03*
%TD*%
D16*
%TO.P,SW1,1*%
%TO.N,unconnected-(SW1-Pad1)*%
X203454000Y-184646489D03*
%TO.P,SW1,2*%
%TO.N,Net-(D5-A)*%
X205994000Y-184646489D03*
%TO.P,SW1,3*%
%TO.N,Net-(BT1-+)*%
X208534000Y-184646489D03*
%TO.P,SW1,4*%
%TO.N,unconnected-(SW1-Pad4)*%
X208534000Y-189726489D03*
%TO.P,SW1,5*%
%TO.N,unconnected-(SW1-Pad5)*%
X203454000Y-189726489D03*
%TD*%
D15*
%TO.P,SW5,*%
%TO.N,*%
X129250000Y-117611000D03*
X129250000Y-114811000D03*
%TD*%
D17*
%TO.P,U3,1,ANT*%
%TO.N,unconnected-(U3-ANT-Pad1)*%
X231293000Y-118473000D03*
D18*
%TO.P,U3,2,GND*%
%TO.N,GND*%
X233293000Y-118473000D03*
D17*
%TO.P,U3,3,VDD*%
%TO.N,+3.3V*%
X251293000Y-118473000D03*
%TO.P,U3,4,DO*%
%TO.N,/DATA_RF_RECEIVED*%
X253833000Y-118473000D03*
%TO.P,U3,5,DO*%
X256373000Y-118473000D03*
%TO.P,U3,6,GND*%
%TO.N,GND*%
X258913000Y-118473000D03*
%TD*%
D19*
%TO.P,USB1,*%
%TO.N,*%
X170842000Y-119236500D03*
X165062000Y-119236500D03*
D20*
%TO.P,USB1,13,SHELL*%
%TO.N,GND*%
X172272000Y-119766500D03*
D21*
X172272000Y-115556500D03*
D20*
%TO.P,USB1,14,SHELL*%
X163632000Y-119766500D03*
D21*
X163632000Y-115556500D03*
%TD*%
D12*
%TO.P,JOY1,1*%
%TO.N,GND*%
X252260000Y-165700000D03*
D13*
%TO.P,JOY1,2*%
%TO.N,/ADC_JOY1_MD*%
X254800000Y-165700000D03*
%TO.P,JOY1,3*%
%TO.N,+3.3V*%
X257340000Y-165700000D03*
D12*
%TO.P,JOY1,4*%
%TO.N,GND*%
X264450000Y-158550000D03*
D13*
%TO.P,JOY1,5*%
%TO.N,/ADC_JOY1_MT*%
X264450000Y-156050000D03*
%TO.P,JOY1,6*%
%TO.N,+3.3V*%
X264450000Y-153550000D03*
%TO.P,JOY1,7*%
%TO.N,/JOY1_BTN*%
X242050000Y-152800000D03*
X242050000Y-159300000D03*
%TO.P,JOY1,8*%
%TO.N,GND*%
X246550000Y-152800000D03*
X246550000Y-159300000D03*
D14*
%TO.P,JOY1,9,shell*%
%TO.N,unconnected-(JOY1-shell-Pad9)*%
X248150000Y-148300000D03*
%TO.P,JOY1,10,shell*%
%TO.N,unconnected-(JOY1-shell-Pad10)*%
X261450000Y-148300000D03*
%TO.P,JOY1,11,shell*%
%TO.N,unconnected-(JOY1-shell-Pad11)*%
X261450000Y-163800000D03*
%TO.P,JOY1,12,shell*%
%TO.N,unconnected-(JOY1-shell-Pad12)*%
X248150000Y-163800000D03*
%TD*%
D10*
%TO.P,BTN4,*%
%TO.N,*%
X229495000Y-177000000D03*
D11*
%TO.P,BTN4,1,1*%
%TO.N,/BTN_1*%
X225695000Y-174460000D03*
%TO.P,BTN4,2,2*%
%TO.N,GND*%
X232035000Y-171920000D03*
%TD*%
D10*
%TO.P,BTN2,*%
%TO.N,*%
X227745000Y-145495000D03*
D11*
%TO.P,BTN2,1,1*%
%TO.N,/BTN_2*%
X223945000Y-142955000D03*
%TO.P,BTN2,2,2*%
%TO.N,GND*%
X230285000Y-140415000D03*
%TD*%
D15*
%TO.P,SW2,*%
%TO.N,*%
X270000000Y-117650000D03*
X270000000Y-114850000D03*
%TD*%
%TO.P,SW4,*%
%TO.N,*%
X120556949Y-120637949D03*
X118577051Y-118658051D03*
%TD*%
D10*
%TO.P,BTN1,*%
%TO.N,*%
X172245000Y-145495000D03*
D11*
%TO.P,BTN1,1,1*%
%TO.N,/BTN_0*%
X168445000Y-142955000D03*
%TO.P,BTN1,2,2*%
%TO.N,GND*%
X174785000Y-140415000D03*
%TD*%
D22*
%TO.P,U6,*%
%TO.N,*%
X188450000Y-151100000D03*
X188450000Y-174900000D03*
X211750000Y-151100000D03*
X211750000Y-174900000D03*
D23*
%TO.P,U6,1,GND*%
%TO.N,GND*%
X196290000Y-150540000D03*
%TO.P,U6,2,VCC*%
%TO.N,+3.3V*%
X198830000Y-150540000D03*
%TO.P,U6,3,SCL*%
%TO.N,/I2C_SCL*%
X201370000Y-150540000D03*
%TO.P,U6,4,SDA*%
%TO.N,/I2C_SDA*%
X203910000Y-150540000D03*
%TD*%
D17*
%TO.P,U4,1,DAT*%
%TO.N,/DATA_RF_SEND*%
X141224000Y-125730000D03*
%TO.P,U4,2,EN*%
%TO.N,/RF_ENABLE*%
X141224000Y-123190000D03*
%TO.P,U4,3,GND*%
%TO.N,GND*%
X141224000Y-120650000D03*
%TO.P,U4,4,VCC*%
%TO.N,+3.3V*%
X141224000Y-118110000D03*
%TD*%
D24*
%TO.P,BT1,*%
%TO.N,*%
X219350000Y-153580000D03*
X161950000Y-153580000D03*
D14*
%TO.P,BT1,1,+*%
%TO.N,Net-(BT1-+)*%
X213000000Y-180000000D03*
%TO.P,BT1,2,-*%
%TO.N,GND*%
X200300000Y-180000000D03*
%TD*%
D25*
%TO.N,GND*%
X200339000Y-181497000D03*
X187452000Y-134112000D03*
X191576000Y-185688000D03*
X191576000Y-186450000D03*
X190687000Y-185688000D03*
X186944000Y-128524000D03*
X187706000Y-128778000D03*
X197158000Y-124613500D03*
X191576000Y-187974000D03*
X201482000Y-178830000D03*
X199958000Y-124613500D03*
X198558000Y-124613500D03*
X216408000Y-149098000D03*
X183134000Y-119380000D03*
X133350000Y-115316000D03*
X185226000Y-127014000D03*
X192532000Y-138684000D03*
X198558000Y-123213500D03*
X200339000Y-178449000D03*
X256794000Y-132588000D03*
X146872000Y-136412000D03*
X201990000Y-157841600D03*
X214376000Y-122174000D03*
X202752000Y-163401600D03*
X192846000Y-162306000D03*
X147888000Y-136412000D03*
X206308000Y-162814000D03*
X214376000Y-116840000D03*
X214362000Y-118632000D03*
X189230000Y-115493500D03*
X199958000Y-123213500D03*
X201863000Y-179973000D03*
X198374000Y-165862000D03*
X183702000Y-186196000D03*
X196910000Y-143778000D03*
X184464000Y-186196000D03*
X198120000Y-138684000D03*
X257810000Y-130048000D03*
X219964000Y-138684000D03*
X191576000Y-187212000D03*
X199760000Y-163000000D03*
X214376000Y-120396000D03*
X199898000Y-138952000D03*
X258826000Y-132588000D03*
X189992000Y-115493500D03*
X199196000Y-180989000D03*
X162306000Y-122682000D03*
X148904000Y-138952000D03*
X283210000Y-121666000D03*
X216976000Y-185688000D03*
X190687000Y-187974000D03*
X199196000Y-178830000D03*
X122894190Y-116142652D03*
X200204500Y-143778000D03*
X147888000Y-138952000D03*
X201482000Y-180989000D03*
X196342000Y-138684000D03*
X206248000Y-164846000D03*
X190687000Y-186450000D03*
X190687000Y-187212000D03*
X210820000Y-115570000D03*
X193608000Y-143778000D03*
X146872000Y-138952000D03*
X186690000Y-134112000D03*
X214376000Y-123952000D03*
X258826000Y-130048000D03*
X189738000Y-143764000D03*
X152908000Y-119888000D03*
X211582000Y-115570000D03*
X183388000Y-117483800D03*
X198815000Y-179973000D03*
X199958000Y-121813500D03*
X256794000Y-130048000D03*
X202802936Y-162103856D03*
X148904000Y-136412000D03*
X183134000Y-121158000D03*
X257810000Y-132588000D03*
X210058000Y-115570000D03*
X188544500Y-115493500D03*
X175260000Y-122428000D03*
X194370000Y-138698000D03*
X197158000Y-123213500D03*
X197158000Y-121813500D03*
X203514000Y-143764000D03*
X274056644Y-115444595D03*
X152908000Y-118872000D03*
X215506000Y-125730000D03*
X198434000Y-160034000D03*
X206808500Y-143778000D03*
X198558000Y-121813500D03*
X201736000Y-138624000D03*
%TO.N,/BTN_0*%
X168462000Y-136920000D03*
X195834000Y-131826000D03*
%TO.N,/BTN_2*%
X197104000Y-131826000D03*
X225358000Y-130934400D03*
%TO.N,+3.3V*%
X223012000Y-116078000D03*
X143570000Y-136412000D03*
X224536000Y-134366000D03*
X252222000Y-130048000D03*
X189230000Y-116763500D03*
X199959000Y-159271000D03*
X253238000Y-130048000D03*
X252222000Y-132588000D03*
X226568000Y-166116000D03*
X221040000Y-116202400D03*
X245170000Y-145288000D03*
X182372000Y-172974000D03*
X142554000Y-136412000D03*
X183134000Y-124714000D03*
X189992000Y-116763500D03*
X183388000Y-115824000D03*
X141284000Y-138952000D03*
X251206000Y-130048000D03*
X143316000Y-138952000D03*
X183896000Y-172974000D03*
X184658000Y-172974000D03*
X214871000Y-149098000D03*
X183134000Y-172974000D03*
X188544500Y-116763500D03*
X251206000Y-132588000D03*
X216978530Y-116304200D03*
X141538000Y-136412000D03*
X253238000Y-132588000D03*
X183134000Y-122936000D03*
X181610000Y-172974000D03*
X135636000Y-145796000D03*
X167997825Y-167110674D03*
X180848000Y-172974000D03*
X142300000Y-138952000D03*
X203695000Y-165803000D03*
X160782000Y-142748000D03*
%TO.N,/BTN_3*%
X199428000Y-131864000D03*
X179384000Y-137682000D03*
%TO.N,/BTN_1*%
X198374000Y-131826000D03*
X236534000Y-132094000D03*
%TO.N,/JOY0_BTN*%
X133664000Y-134380000D03*
X193294000Y-131572000D03*
%TO.N,/JOY1_BTN*%
X194564000Y-131826000D03*
X194056000Y-154178000D03*
X241868000Y-131586000D03*
%TO.N,/ADC_JOY0_MT*%
X154708596Y-123060400D03*
X187004000Y-119303500D03*
%TO.N,/ADC_JOY1_MT*%
X210626000Y-118886000D03*
X263712000Y-123966000D03*
%TO.N,/ADC_JOY1_MD*%
X212912000Y-115584000D03*
X261172000Y-116854000D03*
%TO.N,/ADC_JOY0_MD*%
X130108000Y-123966000D03*
X187004000Y-120573500D03*
%TO.N,Net-(R8-Pad1)*%
X220010000Y-142494000D03*
X209864000Y-142508000D03*
%TO.N,Net-(R12-Pad1)*%
X195132000Y-148858000D03*
X209864000Y-150128000D03*
%TO.N,Net-(R9-Pad1)*%
X220532000Y-148350000D03*
X205126629Y-148315428D03*
%TO.N,Net-(R11-Pad1)*%
X201676000Y-148493600D03*
X210372000Y-149112000D03*
%TO.N,Net-(R3-Pad1)*%
X219770000Y-145048000D03*
X199704000Y-145048000D03*
%TO.N,Net-(R13-Pad1)*%
X211785600Y-147842000D03*
X193100000Y-147588000D03*
%TO.N,/LED1*%
X207324000Y-134634000D03*
X215452000Y-134634000D03*
%TO.N,/LED4*%
X205292000Y-136920000D03*
X213674000Y-137174000D03*
%TO.N,/LED5*%
X213928000Y-136412000D03*
X201990000Y-134634000D03*
%TO.N,/LED6*%
X200720000Y-131586000D03*
X214436000Y-133110000D03*
%TO.N,/LED3*%
X217472000Y-136852199D03*
X204609751Y-135316249D03*
%TO.N,/LED2*%
X217170000Y-135890000D03*
X205778000Y-134836000D03*
%TO.N,/BTNL4*%
X224596000Y-115584000D03*
X265684000Y-117348000D03*
%TO.N,/BTNL3*%
X275336000Y-118364000D03*
X221802000Y-115076000D03*
%TO.N,/BTNL2*%
X217738000Y-117870000D03*
X119888000Y-122682000D03*
%TO.N,/BTNL1*%
X127508000Y-118872000D03*
X215728807Y-115050000D03*
%TO.N,/con_dn*%
X167594773Y-121615309D03*
X167894000Y-118364000D03*
%TO.N,/con_dp*%
X166878000Y-119126000D03*
X166777030Y-121383360D03*
%TO.N,/I2C_SCL*%
X196572133Y-163458076D03*
X210351418Y-126526584D03*
X203768000Y-160288000D03*
X193040000Y-123190000D03*
%TO.N,/I2C_SDA*%
X204530000Y-160796000D03*
X196244229Y-164255740D03*
X193040000Y-121843500D03*
X211388000Y-126506000D03*
%TO.N,/DATA_RF_RECEIVED*%
X193608000Y-128284000D03*
X257362000Y-126252000D03*
%TO.N,/RF_ENABLE*%
X193040000Y-124206000D03*
%TO.N,/DATA_RF_SEND*%
X192786000Y-127000000D03*
%TO.N,Net-(U1-FB)*%
X180594000Y-185928000D03*
X187452000Y-187198000D03*
%TO.N,/vin*%
X185674000Y-186436000D03*
X188468000Y-182118000D03*
%TO.N,/INT_MPU*%
X185734000Y-156605000D03*
X203006000Y-156732000D03*
X189036000Y-125490000D03*
X171764000Y-126506000D03*
%TO.N,/VBAT*%
X239074000Y-129300000D03*
X192592000Y-129554000D03*
%TD*%
D26*
%TO.N,/BTN_0*%
X193862000Y-134380000D02*
X191576000Y-134380000D01*
X195834000Y-131826000D02*
X195834000Y-132408000D01*
X191576000Y-134380000D02*
X189036000Y-136920000D01*
X195834000Y-132408000D02*
X193862000Y-134380000D01*
X189036000Y-136920000D02*
X168462000Y-136920000D01*
%TO.N,/BTN_2*%
X198509200Y-130420800D02*
X202411010Y-130420800D01*
D27*
X225358000Y-130934400D02*
X225358001Y-130934399D01*
D26*
X202924609Y-130934399D02*
X225358001Y-130934399D01*
X197104000Y-131826000D02*
X198509200Y-130420800D01*
X202411010Y-130420800D02*
X202924609Y-130934399D01*
%TO.N,/BTN_3*%
X199428000Y-133386000D02*
X199428000Y-131864000D01*
X192338000Y-134888000D02*
X197926000Y-134888000D01*
X189544000Y-137682000D02*
X192338000Y-134888000D01*
X179384000Y-137682000D02*
X189544000Y-137682000D01*
X197926000Y-134888000D02*
X199428000Y-133386000D01*
%TO.N,/BTN_1*%
X236534000Y-132094000D02*
X203260000Y-132094000D01*
X203260000Y-132094000D02*
X202100400Y-130934400D01*
X199122000Y-131078000D02*
X198374000Y-131826000D01*
X202100400Y-130934400D02*
X200450098Y-130934400D01*
X200450098Y-130934400D02*
X200306498Y-131078000D01*
X200306498Y-131078000D02*
X199122000Y-131078000D01*
%TO.N,/JOY0_BTN*%
X132350000Y-159300000D02*
X132350000Y-152800000D01*
X133664000Y-134380000D02*
X184464000Y-134380000D01*
X189978000Y-134888000D02*
X193294000Y-131572000D01*
X184972000Y-134888000D02*
X189978000Y-134888000D01*
X184464000Y-134380000D02*
X184972000Y-134888000D01*
%TO.N,/JOY1_BTN*%
X194564000Y-131826000D02*
X196372400Y-130017600D01*
X196372400Y-130017600D02*
X202578020Y-130017600D01*
D27*
X242050000Y-152800000D02*
X225152000Y-152800000D01*
X223012000Y-154940000D02*
X222454800Y-155497200D01*
X195375200Y-155497200D02*
X194056000Y-154178000D01*
D26*
X202578020Y-130017600D02*
X202876422Y-130316000D01*
X202876422Y-130316000D02*
X240598000Y-130316000D01*
D27*
X222454800Y-155497200D02*
X195375200Y-155497200D01*
D26*
X240598000Y-130316000D02*
X241868000Y-131586000D01*
D27*
X225152000Y-152800000D02*
X223012000Y-154940000D01*
D26*
%TO.N,/ADC_JOY0_MT*%
X186151500Y-120156000D02*
X180654000Y-120156000D01*
X187004000Y-119303500D02*
X186151500Y-120156000D01*
X177501200Y-123308800D02*
X154956996Y-123308800D01*
X154956996Y-123308800D02*
X154708596Y-123060400D01*
X180654000Y-120156000D02*
X177501200Y-123308800D01*
%TO.N,/ADC_JOY1_MT*%
X211388000Y-119648000D02*
X225866000Y-119648000D01*
X210626000Y-118886000D02*
X211388000Y-119648000D01*
X225866000Y-119648000D02*
X230184000Y-123966000D01*
X230184000Y-123966000D02*
X263712000Y-123966000D01*
%TO.N,/ADC_JOY1_MD*%
X218568600Y-115652600D02*
X219770000Y-116854000D01*
X260410000Y-116092000D02*
X261172000Y-116854000D01*
X212912000Y-115584000D02*
X215198000Y-115584000D01*
X215266600Y-115652600D02*
X218568600Y-115652600D01*
X226374000Y-116854000D02*
X227136000Y-116092000D01*
X219770000Y-116854000D02*
X226374000Y-116854000D01*
X215198000Y-115584000D02*
X215266600Y-115652600D01*
X227136000Y-116092000D02*
X260410000Y-116092000D01*
%TO.N,/ADC_JOY0_MD*%
X151190000Y-123712000D02*
X144078000Y-116600000D01*
X177860000Y-123712000D02*
X151190000Y-123712000D01*
X179384000Y-122188000D02*
X177860000Y-123712000D01*
X132648000Y-123966000D02*
X130108000Y-123966000D01*
X185389500Y-122188000D02*
X179384000Y-122188000D01*
X144078000Y-116600000D02*
X140014000Y-116600000D01*
X140014000Y-116600000D02*
X132648000Y-123966000D01*
X187004000Y-120573500D02*
X185389500Y-122188000D01*
D28*
%TO.N,Net-(BT1-+)*%
X208534000Y-184466000D02*
X208534000Y-184646489D01*
X213000000Y-180000000D02*
X208534000Y-184466000D01*
D26*
%TO.N,Net-(R8-Pad1)*%
X220010000Y-142494000D02*
X209878000Y-142494000D01*
X209878000Y-142494000D02*
X209864000Y-142508000D01*
%TO.N,Net-(R12-Pad1)*%
X209073400Y-149337400D02*
X195611400Y-149337400D01*
X209864000Y-150128000D02*
X209073400Y-149337400D01*
X195611400Y-149337400D02*
X195132000Y-148858000D01*
%TO.N,Net-(R9-Pad1)*%
X220786000Y-148096000D02*
X220532000Y-148350000D01*
X210199389Y-148493600D02*
X210055789Y-148350000D01*
X212199102Y-148350000D02*
X212055502Y-148493600D01*
X220532000Y-148350000D02*
X212199102Y-148350000D01*
X210055789Y-148350000D02*
X205161201Y-148350000D01*
X205161201Y-148350000D02*
X205126629Y-148315428D01*
X212055502Y-148493600D02*
X210199389Y-148493600D01*
%TO.N,Net-(R11-Pad1)*%
X209240411Y-148934200D02*
X209418210Y-149112000D01*
X202387600Y-148493600D02*
X202828200Y-148934200D01*
X209418210Y-149112000D02*
X210372000Y-149112000D01*
X201676000Y-148493600D02*
X202387600Y-148493600D01*
X202828200Y-148934200D02*
X209240411Y-148934200D01*
%TO.N,Net-(R3-Pad1)*%
X219770000Y-145048000D02*
X199704000Y-145048000D01*
%TO.N,Net-(R13-Pad1)*%
X204678555Y-147842000D02*
X204856727Y-147663828D01*
X205574703Y-147842000D02*
X211785600Y-147842000D01*
X193354000Y-147842000D02*
X204678555Y-147842000D01*
X193100000Y-147588000D02*
X193354000Y-147842000D01*
X204856727Y-147663828D02*
X205396531Y-147663828D01*
X205396531Y-147663828D02*
X205574703Y-147842000D01*
%TO.N,/LED1*%
X207324000Y-134634000D02*
X215452000Y-134634000D01*
%TO.N,/LED4*%
X205546000Y-137174000D02*
X213674000Y-137174000D01*
X205292000Y-136920000D02*
X205546000Y-137174000D01*
%TO.N,/LED5*%
X202498000Y-134634000D02*
X204276000Y-136412000D01*
X205561902Y-136268400D02*
X205705502Y-136412000D01*
X204878498Y-136412000D02*
X205022098Y-136268400D01*
X205022098Y-136268400D02*
X205561902Y-136268400D01*
X201990000Y-134634000D02*
X202498000Y-134634000D01*
X204276000Y-136412000D02*
X204878498Y-136412000D01*
X205705502Y-136412000D02*
X213928000Y-136412000D01*
%TO.N,/LED6*%
X214182000Y-132856000D02*
X214436000Y-133110000D01*
X200720000Y-131840000D02*
X201736000Y-132856000D01*
X204784000Y-132856000D02*
X214182000Y-132856000D01*
X201736000Y-132856000D02*
X204784000Y-132856000D01*
X200720000Y-131586000D02*
X200720000Y-131840000D01*
%TO.N,/LED3*%
X214197902Y-135760400D02*
X215289701Y-136852199D01*
X213514498Y-135904000D02*
X213658098Y-135760400D01*
X205728912Y-135865200D02*
X205767713Y-135904000D01*
X215289701Y-136852199D02*
X217472000Y-136852199D01*
X205767713Y-135904000D02*
X213514498Y-135904000D01*
X213658098Y-135760400D02*
X214197902Y-135760400D01*
X204999200Y-135865200D02*
X205728912Y-135865200D01*
X204609751Y-135316249D02*
X204609751Y-135475751D01*
X204609751Y-135475751D02*
X204999200Y-135865200D01*
D27*
%TO.N,/LED2*%
X206640419Y-134836000D02*
X207064619Y-135260200D01*
X216540200Y-135260200D02*
X217170000Y-135890000D01*
X207064619Y-135260200D02*
X216540200Y-135260200D01*
X205778000Y-134836000D02*
X206640419Y-134836000D01*
D26*
%TO.N,/BTNL4*%
X265684000Y-117348000D02*
X263920000Y-115584000D01*
X263920000Y-115584000D02*
X224596000Y-115584000D01*
%TO.N,/BTNL3*%
X266446000Y-116078000D02*
X265430000Y-115062000D01*
X273050000Y-116078000D02*
X266446000Y-116078000D01*
X224326098Y-114932400D02*
X224196498Y-115062000D01*
X275336000Y-118364000D02*
X273050000Y-116078000D01*
X224865902Y-114932400D02*
X224326098Y-114932400D01*
X265430000Y-115062000D02*
X224995502Y-115062000D01*
X224196498Y-115062000D02*
X221816000Y-115062000D01*
X221816000Y-115062000D02*
X221802000Y-115076000D01*
X224995502Y-115062000D02*
X224865902Y-114932400D01*
D27*
%TO.N,/BTNL2*%
X211582000Y-117856000D02*
X217724000Y-117856000D01*
X182626000Y-118110000D02*
X182118000Y-117602000D01*
X211582000Y-117856000D02*
X211328000Y-118110000D01*
X182118000Y-117602000D02*
X167839715Y-117602000D01*
D26*
X136458000Y-119394000D02*
X133170000Y-122682000D01*
D27*
X167839715Y-117602000D02*
X167331715Y-118110000D01*
D26*
X144390800Y-116196800D02*
X139846990Y-116196800D01*
X136649790Y-119394000D02*
X136458000Y-119394000D01*
X146304000Y-118110000D02*
X144390800Y-116196800D01*
X167331715Y-118110000D02*
X146304000Y-118110000D01*
D27*
X217724000Y-117856000D02*
X217738000Y-117870000D01*
D26*
X139846990Y-116196800D02*
X136649790Y-119394000D01*
X133170000Y-122682000D02*
X119888000Y-122682000D01*
D27*
X211328000Y-118110000D02*
X182626000Y-118110000D01*
%TO.N,/BTNL1*%
X167141632Y-117602000D02*
X167494032Y-117249600D01*
X144681600Y-115725600D02*
X146558000Y-117602000D01*
X176374400Y-117249600D02*
X178796800Y-114827200D01*
X139677254Y-115725600D02*
X144681600Y-115725600D01*
X178796800Y-114827200D02*
X215506007Y-114827200D01*
D26*
X127508000Y-118872000D02*
X136601580Y-118872000D01*
D27*
X215506007Y-114827200D02*
X215728807Y-115050000D01*
X146558000Y-117602000D02*
X167141632Y-117602000D01*
D26*
X136977243Y-118496337D02*
X136977243Y-118425611D01*
D27*
X167494032Y-117249600D02*
X176374400Y-117249600D01*
X136977243Y-118425611D02*
X139677254Y-115725600D01*
D26*
X136601580Y-118872000D02*
X136977243Y-118496337D01*
D29*
%TO.N,/con_dn*%
X167894000Y-118364000D02*
X167894000Y-121353423D01*
X167894000Y-121353423D02*
X167856659Y-121353423D01*
X167856659Y-121353423D02*
X167594773Y-121615309D01*
%TO.N,/con_dp*%
X166878000Y-121282390D02*
X166777030Y-121383360D01*
X166878000Y-119126000D02*
X166878000Y-121282390D01*
D26*
%TO.N,/I2C_SCL*%
X195386000Y-120410000D02*
X193040000Y-122756000D01*
X196572133Y-163419867D02*
X196572133Y-163458076D01*
X203768000Y-160288000D02*
X200720000Y-160288000D01*
X210351418Y-126526584D02*
X210351418Y-126231418D01*
X204530000Y-120410000D02*
X195386000Y-120410000D01*
X200720000Y-160288000D02*
X200466000Y-160542000D01*
X193040000Y-122756000D02*
X193040000Y-123190000D01*
X210351418Y-126231418D02*
X204530000Y-120410000D01*
X199450000Y-160542000D02*
X196572133Y-163419867D01*
X200466000Y-160542000D02*
X199450000Y-160542000D01*
%TO.N,/I2C_SDA*%
X196625260Y-164255740D02*
X199831000Y-161050000D01*
D27*
X204276000Y-161050000D02*
X204530000Y-160796000D01*
D26*
X211388000Y-126506000D02*
X204888800Y-120006800D01*
X194876700Y-120006800D02*
X193040000Y-121843500D01*
X196244229Y-164255740D02*
X196625260Y-164255740D01*
X204888800Y-120006800D02*
X194876700Y-120006800D01*
X199831000Y-161050000D02*
X204276000Y-161050000D01*
%TO.N,/DATA_RF_RECEIVED*%
X194624000Y-127268000D02*
X193608000Y-128284000D01*
X217230000Y-126252000D02*
X216214000Y-127268000D01*
X256373000Y-118473000D02*
X253833000Y-118473000D01*
X216214000Y-127268000D02*
X194624000Y-127268000D01*
X257362000Y-126252000D02*
X217230000Y-126252000D01*
D27*
%TO.N,/RF_ENABLE*%
X143146200Y-125112200D02*
X182080490Y-125112200D01*
X186037800Y-125366200D02*
X186690000Y-124714000D01*
X141224000Y-123190000D02*
X143146200Y-125112200D01*
X192532000Y-124714000D02*
X193040000Y-124206000D01*
X182334490Y-125366200D02*
X186037800Y-125366200D01*
X182080490Y-125112200D02*
X182334490Y-125366200D01*
X186690000Y-124714000D02*
X192532000Y-124714000D01*
%TO.N,/DATA_RF_SEND*%
X141224000Y-125730000D02*
X142626200Y-127132200D01*
X176941510Y-126883800D02*
X177449510Y-126375800D01*
X172023381Y-127132200D02*
X172271781Y-126883800D01*
X189484000Y-127000000D02*
X192786000Y-127000000D01*
X177449510Y-126375800D02*
X188859800Y-126375800D01*
X188859800Y-126375800D02*
X189484000Y-127000000D01*
X142626200Y-127132200D02*
X172023381Y-127132200D01*
X172271781Y-126883800D02*
X176941510Y-126883800D01*
D26*
%TO.N,Net-(U1-FB)*%
X187452000Y-187198000D02*
X181864000Y-187198000D01*
X181864000Y-187198000D02*
X180594000Y-185928000D01*
%TO.N,/vin*%
X188468000Y-182118000D02*
X188468000Y-183642000D01*
X188468000Y-183642000D02*
X185674000Y-186436000D01*
%TO.N,/INT_MPU*%
X181416000Y-125744000D02*
X172526000Y-125744000D01*
X188528000Y-125998000D02*
X187004000Y-125998000D01*
X181670000Y-125998000D02*
X181416000Y-125744000D01*
X187004000Y-125998000D02*
X181670000Y-125998000D01*
X189036000Y-125490000D02*
X188528000Y-125998000D01*
X203006000Y-156732000D02*
X202879000Y-156605000D01*
X202879000Y-156605000D02*
X185734000Y-156605000D01*
X172526000Y-125744000D02*
X171764000Y-126506000D01*
%TO.N,/VBAT*%
X192846000Y-129300000D02*
X192592000Y-129554000D01*
X239074000Y-129300000D02*
X192846000Y-129300000D01*
%TD*%
M02*
