M48
; DRILL file {KiCad 9.0.7} date 2026-02-28T18:07:07-0400
; FORMAT={-:-/ absolute / metric / decimal}
; #@! TF.CreationDate,2026-02-28T18:07:07-04:00
; #@! TF.GenerationSoftware,Kicad,Pcbnew,9.0.7
; #@! TF.FileFunction,Plated,1,4,PTH
FMAT,2
METRIC
; #@! TA.AperFunction,Plated,PTH,ViaDrill
T1C0.300
; #@! TA.AperFunction,Plated,PTH,ComponentDrill
T2C0.600
; #@! TA.AperFunction,Plated,PTH,ComponentDrill
T3C0.700
; #@! TA.AperFunction,Plated,PTH,ComponentDrill
T4C0.800
; #@! TA.AperFunction,Plated,PTH,ComponentDrill
T5C0.900
; #@! TA.AperFunction,Plated,PTH,ComponentDrill
T6C1.000
; #@! TA.AperFunction,Plated,PTH,ComponentDrill
T7C1.050
; #@! TA.AperFunction,Plated,PTH,ComponentDrill
T8C1.100
; #@! TA.AperFunction,Plated,PTH,ComponentDrill
T9C1.200
; #@! TA.AperFunction,Plated,PTH,ComponentDrill
T10C1.500
; #@! TA.AperFunction,Plated,PTH,ComponentDrill
T11C1.600
; #@! TA.AperFunction,Plated,PTH,ComponentDrill
T12C2.030
; #@! TA.AperFunction,Plated,PTH,ComponentDrill
T13C3.180
; #@! TA.AperFunction,Plated,PTH,ComponentDrill
T14C4.200
%
G90
G05
T1
X119.888Y-122.682
X122.894Y-116.143
X127.508Y-118.872
X130.108Y-123.966
X133.35Y-115.316
X133.664Y-134.38
X135.636Y-145.796
X141.284Y-138.952
X141.538Y-136.412
X142.3Y-138.952
X142.554Y-136.412
X143.316Y-138.952
X143.57Y-136.412
X146.872Y-136.412
X146.872Y-138.952
X147.888Y-136.412
X147.888Y-138.952
X148.904Y-136.412
X148.904Y-138.952
X152.908Y-118.872
X152.908Y-119.888
X154.709Y-123.06
X160.782Y-142.748
X162.306Y-122.682
X166.777Y-121.383
X166.878Y-119.126
X167.595Y-121.615
X167.894Y-118.364
X167.998Y-167.111
X168.462Y-136.92
X171.764Y-126.506
X175.26Y-122.428
X179.384Y-137.682
X180.594Y-185.928
X180.848Y-172.974
X181.61Y-172.974
X182.372Y-172.974
X183.134Y-119.38
X183.134Y-121.158
X183.134Y-122.936
X183.134Y-124.714
X183.134Y-172.974
X183.388Y-115.824
X183.388Y-117.484
X183.702Y-186.196
X183.896Y-172.974
X184.464Y-186.196
X184.658Y-172.974
X185.226Y-127.014
X185.674Y-186.436
X185.734Y-156.605
X186.69Y-134.112
X186.944Y-128.524
X187.004Y-119.303
X187.004Y-120.573
X187.452Y-134.112
X187.452Y-187.198
X187.706Y-128.778
X188.468Y-182.118
X188.544Y-115.493
X188.544Y-116.763
X189.036Y-125.49
X189.23Y-115.493
X189.23Y-116.763
X189.738Y-143.764
X189.992Y-115.493
X189.992Y-116.763
X190.687Y-185.688
X190.687Y-186.45
X190.687Y-187.212
X190.687Y-187.974
X191.576Y-185.688
X191.576Y-186.45
X191.576Y-187.212
X191.576Y-187.974
X192.532Y-138.684
X192.592Y-129.554
X192.786Y-127.0
X192.846Y-162.306
X193.04Y-121.843
X193.04Y-123.19
X193.04Y-124.206
X193.1Y-147.588
X193.294Y-131.572
X193.608Y-128.284
X193.608Y-143.778
X194.056Y-154.178
X194.37Y-138.698
X194.564Y-131.826
X195.132Y-148.858
X195.834Y-131.826
X196.244Y-164.256
X196.342Y-138.684
X196.572Y-163.458
X196.91Y-143.778
X197.104Y-131.826
X197.158Y-121.813
X197.158Y-123.213
X197.158Y-124.613
X198.12Y-138.684
X198.374Y-131.826
X198.374Y-165.862
X198.434Y-160.034
X198.558Y-121.813
X198.558Y-123.213
X198.558Y-124.613
X198.815Y-179.973
X199.196Y-178.83
X199.196Y-180.989
X199.428Y-131.864
X199.704Y-145.048
X199.76Y-163.0
X199.898Y-138.952
X199.958Y-121.813
X199.958Y-123.213
X199.958Y-124.613
X199.959Y-159.271
X200.204Y-143.778
X200.339Y-178.449
X200.339Y-181.497
X200.72Y-131.586
X201.482Y-178.83
X201.482Y-180.989
X201.676Y-148.494
X201.736Y-138.624
X201.863Y-179.973
X201.99Y-134.634
X201.99Y-157.842
X202.752Y-163.402
X202.803Y-162.104
X203.006Y-156.732
X203.514Y-143.764
X203.695Y-165.803
X203.768Y-160.288
X204.53Y-160.796
X204.61Y-135.316
X205.127Y-148.315
X205.292Y-136.92
X205.778Y-134.836
X206.248Y-164.846
X206.308Y-162.814
X206.808Y-143.778
X207.324Y-134.634
X209.864Y-142.508
X209.864Y-150.128
X210.058Y-115.57
X210.351Y-126.527
X210.372Y-149.112
X210.626Y-118.886
X210.82Y-115.57
X211.388Y-126.506
X211.582Y-115.57
X211.786Y-147.842
X212.912Y-115.584
X213.674Y-137.174
X213.928Y-136.412
X214.362Y-118.632
X214.376Y-116.84
X214.376Y-120.396
X214.376Y-122.174
X214.376Y-123.952
X214.436Y-133.11
X214.871Y-149.098
X215.452Y-134.634
X215.506Y-125.73
X215.729Y-115.05
X216.408Y-149.098
X216.976Y-185.688
X216.979Y-116.304
X217.17Y-135.89
X217.472Y-136.852
X217.738Y-117.87
X219.77Y-145.048
X219.964Y-138.684
X220.01Y-142.494
X220.532Y-148.35
X221.04Y-116.202
X221.802Y-115.076
X223.012Y-116.078
X224.536Y-134.366
X224.596Y-115.584
X225.358Y-130.934
X226.568Y-166.116
X236.534Y-132.094
X239.074Y-129.3
X241.868Y-131.586
X245.17Y-145.288
X251.206Y-130.048
X251.206Y-132.588
X252.222Y-130.048
X252.222Y-132.588
X253.238Y-130.048
X253.238Y-132.588
X256.794Y-130.048
X256.794Y-132.588
X257.362Y-126.252
X257.81Y-130.048
X257.81Y-132.588
X258.826Y-130.048
X258.826Y-132.588
X261.172Y-116.854
X263.712Y-123.966
X265.684Y-117.348
X274.057Y-115.445
X275.336Y-118.364
X283.21Y-121.666
T3
X165.062Y-119.236
X170.842Y-119.236
T4
X141.224Y-118.11
X141.224Y-120.65
X141.224Y-123.19
X141.224Y-125.73
X231.293Y-118.473
X233.293Y-118.473
X251.293Y-118.473
X253.833Y-118.473
X256.373Y-118.473
X258.913Y-118.473
T5
X118.577Y-118.658
X120.557Y-120.638
X129.25Y-114.811
X129.25Y-117.611
X270.0Y-114.85
X270.0Y-117.65
X278.76Y-119.99
X280.74Y-118.01
T6
X132.35Y-152.8
X132.35Y-159.3
X136.85Y-152.8
X136.85Y-159.3
X142.56Y-165.7
X145.1Y-165.7
X147.64Y-165.7
X154.75Y-153.55
X154.75Y-156.05
X154.75Y-158.55
X242.05Y-152.8
X242.05Y-159.3
X246.55Y-152.8
X246.55Y-159.3
X252.26Y-165.7
X254.8Y-165.7
X257.34Y-165.7
X264.45Y-153.55
X264.45Y-156.05
X264.45Y-158.55
T7
X196.29Y-150.54
X198.83Y-150.54
X201.37Y-150.54
X203.91Y-150.54
T8
X203.454Y-184.646
X203.454Y-189.726
X205.994Y-184.646
X208.534Y-184.646
X208.534Y-189.726
T9
X200.3Y-180.0
X213.0Y-180.0
T10
X138.45Y-148.3
X138.45Y-163.8
X151.75Y-148.3
X151.75Y-163.8
X248.15Y-148.3
X248.15Y-163.8
X261.45Y-148.3
X261.45Y-163.8
T11
X166.66Y-174.455
X168.445Y-142.955
X173.0Y-171.915
X174.785Y-140.415
X223.945Y-142.955
X225.695Y-174.46
X230.285Y-140.415
X232.035Y-171.92
T12
X188.45Y-151.1
X188.45Y-174.9
X211.75Y-151.1
X211.75Y-174.9
T13
X161.95Y-153.58
X219.35Y-153.58
T14
X170.46Y-176.995
X172.245Y-145.495
X227.745Y-145.495
X229.495Y-177.0
T2
G00X163.632Y-115.856
M15
G01X163.632Y-115.257
M16
G05
G00X163.632Y-120.217
M15
G01X163.632Y-119.316
M16
G05
G00X172.272Y-115.856
M15
G01X172.272Y-115.257
M16
G05
G00X172.272Y-120.216
M15
G01X172.272Y-119.317
M16
G05
M30
