%TF.GenerationSoftware,KiCad,Pcbnew,9.0.7*%
%TF.CreationDate,2026-02-28T18:07:03-04:00*%
%TF.ProjectId,KAKATA_RC433_V1,4b414b41-5441-45f5-9243-3433335f5631,V1*%
%TF.SameCoordinates,Original*%
%TF.FileFunction,Paste,Top*%
%TF.FilePolarity,Positive*%
%FSLAX46Y46*%
G04 Gerber Fmt 4.6, Leading zero omitted, Abs format (unit mm)*
G04 Created by KiCad (PCBNEW 9.0.7) date 2026-02-28 18:07:03*
%MOMM*%
%LPD*%
G01*
G04 APERTURE LIST*
G04 Aperture macros list*
%AMRoundRect*
0 Rectangle with rounded corners*
0 $1 Rounding radius*
0 $2 $3 $4 $5 $6 $7 $8 $9 X,Y pos of 4 corners*
0 Add a 4 corners polygon primitive as box body*
4,1,4,$2,$3,$4,$5,$6,$7,$8,$9,$2,$3,0*
0 Add four circle primitives for the rounded corners*
1,1,$1+$1,$2,$3*
1,1,$1+$1,$4,$5*
1,1,$1+$1,$6,$7*
1,1,$1+$1,$8,$9*
0 Add four rect primitives between the rounded corners*
20,1,$1+$1,$2,$3,$4,$5,0*
20,1,$1+$1,$4,$5,$6,$7,0*
20,1,$1+$1,$6,$7,$8,$9,0*
20,1,$1+$1,$8,$9,$2,$3,0*%
%AMRotRect*
0 Rectangle, with rotation*
0 The origin of the aperture is its center*
0 $1 length*
0 $2 width*
0 $3 Rotation angle, in degrees counterclockwise*
0 Add horizontal line*
21,1,$1,$2,0,0,$3*%
G04 Aperture macros list end*
%ADD10RoundRect,0.225000X-0.250000X0.225000X-0.250000X-0.225000X0.250000X-0.225000X0.250000X0.225000X0*%
%ADD11RoundRect,0.250000X-0.250000X-0.475000X0.250000X-0.475000X0.250000X0.475000X-0.250000X0.475000X0*%
%ADD12RoundRect,0.200000X-0.200000X-0.275000X0.200000X-0.275000X0.200000X0.275000X-0.200000X0.275000X0*%
%ADD13RoundRect,0.225000X0.225000X0.250000X-0.225000X0.250000X-0.225000X-0.250000X0.225000X-0.250000X0*%
%ADD14RoundRect,0.225000X-0.225000X-0.250000X0.225000X-0.250000X0.225000X0.250000X-0.225000X0.250000X0*%
%ADD15RoundRect,0.218750X0.218750X0.256250X-0.218750X0.256250X-0.218750X-0.256250X0.218750X-0.256250X0*%
%ADD16R,0.600000X1.000000*%
%ADD17RoundRect,0.250000X-0.475000X0.250000X-0.475000X-0.250000X0.475000X-0.250000X0.475000X0.250000X0*%
%ADD18R,0.980000X2.470000*%
%ADD19R,3.600000X2.470000*%
%ADD20RotRect,1.000000X1.550000X225.000000*%
%ADD21RoundRect,0.150000X0.150000X0.200000X-0.150000X0.200000X-0.150000X-0.200000X0.150000X-0.200000X0*%
%ADD22RoundRect,0.200000X0.200000X0.275000X-0.200000X0.275000X-0.200000X-0.275000X0.200000X-0.275000X0*%
%ADD23RoundRect,0.200000X0.275000X-0.200000X0.275000X0.200000X-0.275000X0.200000X-0.275000X-0.200000X0*%
%ADD24RoundRect,0.225000X0.250000X-0.225000X0.250000X0.225000X-0.250000X0.225000X-0.250000X-0.225000X0*%
%ADD25RoundRect,0.200000X-0.275000X0.200000X-0.275000X-0.200000X0.275000X-0.200000X0.275000X0.200000X0*%
%ADD26R,1.550000X1.000000*%
%ADD27R,0.550000X1.100000*%
%ADD28R,0.300000X1.100000*%
%ADD29RoundRect,0.225000X0.225000X0.375000X-0.225000X0.375000X-0.225000X-0.375000X0.225000X-0.375000X0*%
%ADD30RoundRect,0.150000X0.200000X-0.150000X0.200000X0.150000X-0.200000X0.150000X-0.200000X-0.150000X0*%
%ADD31R,1.500000X0.900000*%
%ADD32R,0.900000X1.500000*%
%ADD33R,0.900000X0.900000*%
%ADD34R,2.270000X3.620000*%
%ADD35O,0.280000X0.800000*%
%ADD36O,0.800000X0.280000*%
%ADD37R,2.700000X2.700000*%
%ADD38RoundRect,0.225000X0.375000X-0.225000X0.375000X0.225000X-0.375000X0.225000X-0.375000X-0.225000X0*%
%ADD39RoundRect,0.250000X-1.500000X-0.550000X1.500000X-0.550000X1.500000X0.550000X-1.500000X0.550000X0*%
%ADD40R,1.500000X0.600000*%
%ADD41RoundRect,0.250000X0.250000X0.475000X-0.250000X0.475000X-0.250000X-0.475000X0.250000X-0.475000X0*%
%ADD42RoundRect,0.150000X-0.200000X0.150000X-0.200000X-0.150000X0.200000X-0.150000X0.200000X0.150000X0*%
%ADD43RotRect,1.000000X1.550000X315.000000*%
G04 APERTURE END LIST*
D10*
%TO.C,C26*%
X196088000Y-186169000D03*
X196088000Y-187719000D03*
%TD*%
D11*
%TO.C,C14*%
X182184000Y-184658000D03*
X184084000Y-184658000D03*
%TD*%
D12*
%TO.C,R21*%
X183131000Y-130175000D03*
X184781000Y-130175000D03*
%TD*%
D13*
%TO.C,C2*%
X195339000Y-162306000D03*
X193789000Y-162306000D03*
%TD*%
D14*
%TO.C,C20*%
X211756000Y-122174000D03*
X213306000Y-122174000D03*
%TD*%
D15*
%TO.C,LED3*%
X201779500Y-142748000D03*
X200204500Y-142748000D03*
%TD*%
D16*
%TO.C,U1*%
X188402000Y-183405000D03*
X187452000Y-183405000D03*
X186502000Y-183405000D03*
X186502000Y-185605000D03*
X188402000Y-185605000D03*
%TD*%
D14*
%TO.C,C8*%
X211769000Y-118632000D03*
X213319000Y-118632000D03*
%TD*%
D17*
%TO.C,C22*%
X160274000Y-117922000D03*
X160274000Y-119822000D03*
%TD*%
D18*
%TO.C,U7*%
X191502000Y-183424000D03*
X193802000Y-183424000D03*
X196102000Y-183424000D03*
D19*
X193802000Y-177764000D03*
%TD*%
D13*
%TO.C,C25*%
X185687000Y-117602000D03*
X184137000Y-117602000D03*
%TD*%
D20*
%TO.C,SW3*%
X277310482Y-117762563D03*
X278512563Y-116560482D03*
X280987437Y-121439518D03*
X282189518Y-120237437D03*
%TD*%
D21*
%TO.C,D1*%
X153478000Y-119380000D03*
X154878000Y-119380000D03*
%TD*%
D13*
%TO.C,C12*%
X185687000Y-119380000D03*
X184137000Y-119380000D03*
%TD*%
D22*
%TO.C,R10*%
X243903000Y-145288000D03*
X242253000Y-145288000D03*
%TD*%
D23*
%TO.C,R9*%
X204978000Y-147383000D03*
X204978000Y-145733000D03*
%TD*%
D15*
%TO.C,LED5*%
X195175500Y-142748000D03*
X193600500Y-142748000D03*
%TD*%
D14*
%TO.C,C23*%
X203695000Y-164846000D03*
X205245000Y-164846000D03*
%TD*%
D24*
%TO.C,C1*%
X200914000Y-159271000D03*
X200914000Y-157721000D03*
%TD*%
D12*
%TO.C,R14*%
X165291000Y-167132000D03*
X166941000Y-167132000D03*
%TD*%
D25*
%TO.C,R25*%
X188468000Y-187135000D03*
X188468000Y-188785000D03*
%TD*%
D14*
%TO.C,C16*%
X214871000Y-148082000D03*
X216421000Y-148082000D03*
%TD*%
D22*
%TO.C,R5*%
X163385000Y-142748000D03*
X161735000Y-142748000D03*
%TD*%
D26*
%TO.C,SW5*%
X126650000Y-117061000D03*
X126650000Y-115361000D03*
X131850000Y-117061000D03*
X131850000Y-115361000D03*
%TD*%
D23*
%TO.C,R6*%
X225552000Y-167703000D03*
X225552000Y-166053000D03*
%TD*%
D27*
%TO.C,USB1*%
X171152000Y-120316500D03*
X170352000Y-120316500D03*
D28*
X169702000Y-120316500D03*
X169202000Y-120316500D03*
X168702000Y-120316500D03*
X168202000Y-120316500D03*
X167702000Y-120316500D03*
X167202000Y-120316500D03*
X166702000Y-120316500D03*
X166202000Y-120316500D03*
D27*
X165552000Y-120316500D03*
X164752000Y-120316500D03*
%TD*%
D25*
%TO.C,R15*%
X223012000Y-117031000D03*
X223012000Y-118681000D03*
%TD*%
D10*
%TO.C,C11*%
X201736000Y-136158000D03*
X201736000Y-137708000D03*
%TD*%
D13*
%TO.C,C10*%
X185687000Y-121158000D03*
X184137000Y-121158000D03*
%TD*%
D12*
%TO.C,R26*%
X216913000Y-184418000D03*
X218563000Y-184418000D03*
%TD*%
D13*
%TO.C,C28*%
X187525000Y-127014000D03*
X185975000Y-127014000D03*
%TD*%
D12*
%TO.C,R1*%
X184087000Y-124714000D03*
X185737000Y-124714000D03*
%TD*%
D29*
%TO.C,D2*%
X180086000Y-187960000D03*
X176786000Y-187960000D03*
%TD*%
D10*
%TO.C,C4*%
X199831000Y-136158000D03*
X199831000Y-137708000D03*
%TD*%
D23*
%TO.C,R7*%
X223520000Y-136016000D03*
X223520000Y-134366000D03*
%TD*%
D10*
%TO.C,C9*%
X194370000Y-136145000D03*
X194370000Y-137695000D03*
%TD*%
D14*
%TO.C,C18*%
X212886000Y-125730000D03*
X214436000Y-125730000D03*
%TD*%
D25*
%TO.C,R18*%
X216916000Y-117031000D03*
X216916000Y-118681000D03*
%TD*%
%TO.C,R16*%
X220980000Y-117031000D03*
X220980000Y-118681000D03*
%TD*%
D15*
%TO.C,LED6*%
X191873500Y-142748000D03*
X190298500Y-142748000D03*
%TD*%
D30*
%TO.C,D3*%
X186944000Y-129221000D03*
X186944000Y-130621000D03*
%TD*%
D31*
%TO.C,U8*%
X191308000Y-115493500D03*
X191308000Y-116763500D03*
X191308000Y-118033500D03*
X191308000Y-119303500D03*
X191308000Y-120573500D03*
X191308000Y-121843500D03*
X191308000Y-123113500D03*
X191308000Y-124383500D03*
X191308000Y-125653500D03*
X191308000Y-126923500D03*
X191308000Y-128193500D03*
X191308000Y-129463500D03*
X191308000Y-130733500D03*
X191308000Y-132003500D03*
D32*
X193068000Y-133273500D03*
X194338000Y-133273500D03*
X195608000Y-133273500D03*
X196878000Y-133273500D03*
X198148000Y-133273500D03*
X199428000Y-133273500D03*
X200688000Y-133273500D03*
X201958000Y-133273500D03*
X203228000Y-133273500D03*
X204508000Y-133273500D03*
X205778000Y-133273500D03*
X207048000Y-133243500D03*
D31*
X208808000Y-132003500D03*
X208808000Y-130733500D03*
X208808000Y-129463500D03*
X208808000Y-128193500D03*
X208808000Y-126923500D03*
X208808000Y-125653500D03*
X208808000Y-124383500D03*
X208808000Y-123113500D03*
X208808000Y-121843500D03*
X208808000Y-120573500D03*
X208808000Y-119303500D03*
X208808000Y-118033500D03*
X208808000Y-116763500D03*
X208808000Y-115493500D03*
D33*
X197158000Y-121813500D03*
X197158000Y-123213500D03*
X197158000Y-124613500D03*
X198558000Y-121813500D03*
X198558000Y-123213500D03*
X198558000Y-124613500D03*
X199958000Y-121813500D03*
X199958000Y-123213500D03*
X199958000Y-124613500D03*
%TD*%
D23*
%TO.C,R8*%
X208280000Y-147383000D03*
X208280000Y-145733000D03*
%TD*%
D22*
%TO.C,R27*%
X218563000Y-186704000D03*
X216913000Y-186704000D03*
%TD*%
D10*
%TO.C,C3*%
X196275000Y-136145000D03*
X196275000Y-137695000D03*
%TD*%
D15*
%TO.C,LED4*%
X198477500Y-142748000D03*
X196902500Y-142748000D03*
%TD*%
D26*
%TO.C,SW2*%
X267400000Y-117100000D03*
X267400000Y-115400000D03*
X272600000Y-117100000D03*
X272600000Y-115400000D03*
%TD*%
D15*
%TO.C,LED1*%
X208383500Y-142748000D03*
X206808500Y-142748000D03*
%TD*%
D14*
%TO.C,C19*%
X211756000Y-123952000D03*
X213306000Y-123952000D03*
%TD*%
D34*
%TO.C,L1*%
X185850000Y-180340000D03*
X182450000Y-180340000D03*
%TD*%
D12*
%TO.C,R22*%
X183131000Y-132080000D03*
X184781000Y-132080000D03*
%TD*%
D35*
%TO.C,U2*%
X198500000Y-165000000D03*
X199000000Y-165000000D03*
X199500000Y-165000000D03*
X200000000Y-165000000D03*
X200500000Y-165000000D03*
X201000000Y-165000000D03*
D36*
X201750000Y-164250000D03*
X201750000Y-163750000D03*
X201750000Y-163250000D03*
X201750000Y-162750000D03*
X201750000Y-162250000D03*
X201750000Y-161750000D03*
D35*
X201000000Y-161000000D03*
X200500000Y-161000000D03*
X200000000Y-161000000D03*
X199500000Y-161000000D03*
X199000000Y-161000000D03*
X198510000Y-161000000D03*
D36*
X197750000Y-161750000D03*
X197750000Y-162250000D03*
X197750000Y-162750000D03*
X197750000Y-163250000D03*
X197750000Y-163750000D03*
X197750000Y-164250000D03*
D37*
X199760000Y-163000000D03*
%TD*%
D25*
%TO.C,R17*%
X218948000Y-117031000D03*
X218948000Y-118681000D03*
%TD*%
D12*
%TO.C,R2*%
X184087000Y-122936000D03*
X185737000Y-122936000D03*
%TD*%
D38*
%TO.C,D5*%
X199644000Y-186816000D03*
X199644000Y-183516000D03*
%TD*%
D14*
%TO.C,C21*%
X211756000Y-120396000D03*
X213306000Y-120396000D03*
%TD*%
D10*
%TO.C,C5*%
X198053000Y-136158000D03*
X198053000Y-137708000D03*
%TD*%
D39*
%TO.C,C17*%
X252216000Y-131318000D03*
X257816000Y-131318000D03*
%TD*%
D40*
%TO.C,U5*%
X218440000Y-146304000D03*
X218440000Y-145034000D03*
X218440000Y-143764000D03*
X218440000Y-142494000D03*
X218440000Y-141224000D03*
X218440000Y-139954000D03*
X218440000Y-138684000D03*
X213040000Y-138684000D03*
X213040000Y-139954000D03*
X213040000Y-141224000D03*
X213040000Y-142494000D03*
X213040000Y-143764000D03*
X213040000Y-145034000D03*
X213040000Y-146304000D03*
%TD*%
D39*
%TO.C,C27*%
X142294000Y-137682000D03*
X147894000Y-137682000D03*
%TD*%
D41*
%TO.C,C15*%
X185862000Y-187706000D03*
X183962000Y-187706000D03*
%TD*%
D23*
%TO.C,R12*%
X195072000Y-147383000D03*
X195072000Y-145733000D03*
%TD*%
D42*
%TO.C,D4*%
X186877000Y-133542000D03*
X186877000Y-132142000D03*
%TD*%
D43*
%TO.C,SW4*%
X118329563Y-122087518D03*
X117127482Y-120885437D03*
X122006518Y-118410563D03*
X120804437Y-117208482D03*
%TD*%
D12*
%TO.C,R19*%
X172657000Y-122428000D03*
X174307000Y-122428000D03*
%TD*%
D15*
%TO.C,LED2*%
X205081500Y-142748000D03*
X203506500Y-142748000D03*
%TD*%
D23*
%TO.C,R11*%
X201676000Y-147383000D03*
X201676000Y-145733000D03*
%TD*%
%TO.C,R3*%
X198374000Y-147383000D03*
X198374000Y-145733000D03*
%TD*%
D14*
%TO.C,C24*%
X203695000Y-162814000D03*
X205245000Y-162814000D03*
%TD*%
D25*
%TO.C,R24*%
X179578000Y-183833000D03*
X179578000Y-185483000D03*
%TD*%
D23*
%TO.C,R13*%
X191770000Y-147383000D03*
X191770000Y-145733000D03*
%TD*%
D14*
%TO.C,C7*%
X211769000Y-116854000D03*
X213319000Y-116854000D03*
%TD*%
D10*
%TO.C,C6*%
X192465000Y-136145000D03*
X192465000Y-137695000D03*
%TD*%
D22*
%TO.C,R4*%
X134937000Y-145796000D03*
X133287000Y-145796000D03*
%TD*%
%TO.C,R20*%
X164909000Y-122682000D03*
X163259000Y-122682000D03*
%TD*%
D12*
%TO.C,R23*%
X184087000Y-115824000D03*
X185737000Y-115824000D03*
%TD*%
D10*
%TO.C,C13*%
X193802000Y-186169000D03*
X193802000Y-187719000D03*
%TD*%
M02*
