%TF.GenerationSoftware,KiCad,Pcbnew,9.0.7*%
%TF.CreationDate,2026-02-28T18:07:03-04:00*%
%TF.ProjectId,KAKATA_RC433_V1,4b414b41-5441-45f5-9243-3433335f5631,V1*%
%TF.SameCoordinates,Original*%
%TF.FileFunction,Legend,Bot*%
%TF.FilePolarity,Positive*%
%FSLAX46Y46*%
G04 Gerber Fmt 4.6, Leading zero omitted, Abs format (unit mm)*
G04 Created by KiCad (PCBNEW 9.0.7) date 2026-02-28 18:07:03*
%MOMM*%
%LPD*%
G01*
G04 APERTURE LIST*
%ADD10C,0.127000*%
%ADD11C,0.250000*%
G04 APERTURE END LIST*
D10*
X213390971Y-183612094D02*
X213303885Y-183641122D01*
X213303885Y-183641122D02*
X213274856Y-183670151D01*
X213274856Y-183670151D02*
X213245828Y-183728208D01*
X213245828Y-183728208D02*
X213245828Y-183815294D01*
X213245828Y-183815294D02*
X213274856Y-183873351D01*
X213274856Y-183873351D02*
X213303885Y-183902380D01*
X213303885Y-183902380D02*
X213361942Y-183931408D01*
X213361942Y-183931408D02*
X213594171Y-183931408D01*
X213594171Y-183931408D02*
X213594171Y-183321808D01*
X213594171Y-183321808D02*
X213390971Y-183321808D01*
X213390971Y-183321808D02*
X213332914Y-183350837D01*
X213332914Y-183350837D02*
X213303885Y-183379865D01*
X213303885Y-183379865D02*
X213274856Y-183437922D01*
X213274856Y-183437922D02*
X213274856Y-183495980D01*
X213274856Y-183495980D02*
X213303885Y-183554037D01*
X213303885Y-183554037D02*
X213332914Y-183583065D01*
X213332914Y-183583065D02*
X213390971Y-183612094D01*
X213390971Y-183612094D02*
X213594171Y-183612094D01*
X213071656Y-183321808D02*
X212723314Y-183321808D01*
X212897485Y-183931408D02*
X212897485Y-183321808D01*
X212200799Y-183931408D02*
X212549142Y-183931408D01*
X212374971Y-183931408D02*
X212374971Y-183321808D01*
X212374971Y-183321808D02*
X212433028Y-183408894D01*
X212433028Y-183408894D02*
X212491085Y-183466951D01*
X212491085Y-183466951D02*
X212549142Y-183495980D01*
D11*
%TO.C,BT1*%
X159150000Y-124600000D02*
X159150000Y-182590000D01*
X159150000Y-182590000D02*
X222140000Y-182590000D01*
X222140000Y-124600000D02*
X159150000Y-124600000D01*
X222140000Y-182590000D02*
X222140000Y-124600000D01*
%TD*%
M02*
